<svg height="880" width="576" xmlns="http://www.w3.org/2000/svg">
    <style>line, path, circle,rect,polygon {
                          stroke: black;
                          stroke-width: 2;
                          stroke-opacity: 1;
                          fill-opacity: 1;
                          stroke-linecap: round;
                          stroke-linejoin: miter;
                        }

                    text {
                        fill: black;
                        }
                        rect.backdrop{
                            stroke: none;
                            fill: white;
                        }
                        .broken{
                            stroke-dasharray: 8;
                        }
                        .filled{
                            fill: black;
                        }
                        .bg_filled{
                            fill: white;
                        }
                        .nofill{
                            fill: white;
                        }

                        text {
                         font-family: monospace;
                         font-size: 14px;
                        }

                        .end_marked_arrow{
                            marker-end: url(#arrow);
                         }
                        .start_marked_arrow{
                            marker-start: url(#arrow);
                         }

                        .end_marked_diamond{
                            marker-end: url(#diamond);
                         }
                        .start_marked_diamond{
                            marker-start: url(#diamond);
                         }

                        .end_marked_circle{
                            marker-end: url(#circle);
                         }
                        .start_marked_circle{
                            marker-start: url(#circle);
                         }

                        .end_marked_open_circle{
                            marker-end: url(#open_circle);
                         }
                        .start_marked_open_circle{
                            marker-start: url(#open_circle);
                         }

                        .end_marked_big_open_circle{
                            marker-end: url(#big_open_circle);
                         }
                        .start_marked_big_open_circle{
                            marker-start: url(#big_open_circle);
                         }

                         
                        </style>
    <defs>
        <marker id="arrow" markerHeight="7" markerWidth="7" orient="auto-start-reverse" refX="4" refY="2" viewBox="-2 -2 8 8">
            <polygon points="0,0 0,4 4,2 0,0"></polygon>
        </marker>
        <marker id="diamond" markerHeight="7" markerWidth="7" orient="auto-start-reverse" refX="4" refY="2" viewBox="-2 -2 8 8">
            <polygon points="0,2 2,0 4,2 2,4 0,2"></polygon>
        </marker>
        <marker id="circle" markerHeight="7" markerWidth="7" orient="auto-start-reverse" refX="4" refY="4" viewBox="0 0 8 8">
            <circle class="filled" cx="4" cy="4" r="2"></circle>
        </marker>
        <marker id="open_circle" markerHeight="7" markerWidth="7" orient="auto-start-reverse" refX="4" refY="4" viewBox="0 0 8 8">
            <circle class="bg_filled" cx="4" cy="4" r="2"></circle>
        </marker>
        <marker id="big_open_circle" markerHeight="7" markerWidth="7" orient="auto-start-reverse" refX="4" refY="4" viewBox="0 0 8 8">
            <circle class="bg_filled" cx="4" cy="4" r="3"></circle>
        </marker>
    </defs>
    <rect class="backdrop" height="880" width="576" x="0" y="0"></rect>
    <rect class="solid nofill " height="32" rx="0" width="56" x="68" y="328"></rect>
    <rect class="solid nofill " height="32" rx="4" width="56" x="156" y="328"></rect>
    <circle class="nofill " cx="444" cy="584" r="24"></circle>
    <circle class="nofill " cx="520" cy="584" r="28"></circle>
    <circle class="nofill " cx="156" cy="584" r="16"></circle>
    <circle class="nofill " cx="208" cy="584" r="20"></circle>
    <circle class="nofill " cx="264" cy="584" r="20"></circle>
    <circle class="nofill " cx="360" cy="584" r="20"></circle>
    <circle class="nofill " cx="76" cy="584" r="8"></circle>
    <circle class="nofill " cx="100" cy="672" r="36"></circle>
    <circle class="nofill " cx="192" cy="688" r="40"></circle>
    <circle class="nofill " cx="296" cy="680" r="44"></circle>
    <circle class="nofill " cx="420" cy="680" r="48"></circle>
    <circle class="nofill " cx="128" cy="784" r="52"></circle>
    <text class="" x="2" y="28">Svgbob</text>
    <text class="" x="58" y="28">is</text>
    <text class="" x="82" y="28">a</text>
    <text class="" x="98" y="28">diagramming</text>
    <text class="" x="194" y="28">model</text>
    <text class="" x="2" y="44">which</text>
    <text class="" x="50" y="44">uses</text>
    <text class="" x="90" y="44">a</text>
    <text class="" x="106" y="44">set</text>
    <text class="" x="138" y="44">of</text>
    <text class="" x="162" y="44">typing</text>
    <text class="" x="218" y="44">characters</text>
    <text class="" x="2" y="60">to</text>
    <text class="" x="26" y="60">approximate</text>
    <text class="" x="122" y="60">the</text>
    <text class="" x="154" y="60">intended</text>
    <text class="" x="226" y="60">shape.</text>
    <line class="solid end_marked_arrow " x1="76" x2="96" y1="120" y2="120"></line>
    <text class="" x="2" y="204">It</text>
    <text class="" x="26" y="204">uses</text>
    <text class="" x="66" y="204">a</text>
    <text class="" x="2" y="220">which</text>
    <text class="" x="50" y="220">are</text>
    <text class="" x="82" y="204">combination</text>
    <text class="" x="178" y="204">of</text>
    <text class="" x="202" y="204">characters</text>
    <text class="" x="82" y="220">readily</text>
    <text class="" x="146" y="220">available</text>
    <text class="" x="226" y="220">on</text>
    <text class="" x="250" y="220">your</text>
    <text class="" x="290" y="220">keyboards.</text>
    <text class="" x="2" y="252">What</text>
    <text class="" x="42" y="252">can</text>
    <text class="" x="74" y="252">it</text>
    <text class="" x="98" y="252">do?</text>
    <circle class="nofill " cx="12" cy="280" r="2"></circle>
    <line class="solid end_marked_arrow " x1="12" x2="32" y1="280" y2="280"></line>
    <text class="" x="50" y="284">Basic</text>
    <text class="" x="98" y="284">shapes</text>
    <line class="solid " x1="56" x2="64" y1="296" y2="296"></line>
    <line class="solid " x1="72" x2="80" y1="296" y2="296"></line>
    <line class="solid " x1="88" x2="96" y1="296" y2="296"></line>
    <line class="solid " x1="104" x2="112" y1="296" y2="296"></line>
    <line class="solid " x1="120" x2="128" y1="296" y2="296"></line>
    <line class="solid " x1="136" x2="144" y1="296" y2="296"></line>
    <line class="solid " x1="152" x2="160" y1="296" y2="296"></line>
    <line class="solid " x1="168" x2="176" y1="296" y2="296"></line>
    <line class="solid " x1="184" x2="192" y1="296" y2="296"></line>
    <line class="solid " x1="200" x2="208" y1="296" y2="296"></line>
    <line class="solid " x1="216" x2="224" y1="296" y2="296"></line>
    <line class="solid " x1="232" x2="240" y1="296" y2="296"></line>
    <line class="solid " x1="248" x2="256" y1="296" y2="296"></line>
    <line class="solid " x1="264" x2="272" y1="296" y2="296"></line>
    <line class="solid " x1="280" x2="288" y1="296" y2="296"></line>
    <line class="solid " x1="296" x2="304" y1="296" y2="296"></line>
    <line class="solid " x1="312" x2="320" y1="296" y2="296"></line>
    <line class="solid " x1="328" x2="336" y1="296" y2="296"></line>
    <line class="solid " x1="344" x2="352" y1="296" y2="296"></line>
    <line class="solid " x1="360" x2="368" y1="296" y2="296"></line>
    <line class="solid " x1="376" x2="384" y1="296" y2="296"></line>
    <line class="solid " x1="392" x2="400" y1="296" y2="296"></line>
    <line class="solid " x1="408" x2="416" y1="296" y2="296"></line>
    <line class="solid " x1="424" x2="432" y1="296" y2="296"></line>
    <line class="solid " x1="440" x2="448" y1="296" y2="296"></line>
    <line class="solid " x1="456" x2="464" y1="296" y2="296"></line>
    <text class="" x="458" y="316">.</text>
    <text class="" x="426" y="348">.</text>
    <text class="" x="490" y="348">.</text>
    <text class="" x="458" y="380">.</text>
    <line class="solid " x1="472" x2="480" y1="296" y2="296"></line>
    <line class="solid " x1="488" x2="496" y1="296" y2="296"></line>
    <line class="solid " x1="504" x2="512" y1="296" y2="296"></line>
    <line class="solid " x1="520" x2="528" y1="296" y2="296"></line>
    <line class="solid " x1="536" x2="544" y1="296" y2="296"></line>
    <polygon class="filled " points="520,348 526,340 524,350"></polygon>
    <line class="solid end_marked_diamond " x1="520" x2="496" y1="352" y2="400"></line>
    <line class="solid end_marked_diamond " x1="528" x2="552" y1="400" y2="352"></line>
    <polygon class="filled " points="520,380 526,372 524,382"></polygon>
    <line class="solid " x1="520" x2="504" y1="384" y2="416"></line>
    <polygon class="filled " points="528,404 522,412 524,402"></polygon>
    <rect class="solid filled " height="8" rx="0" width="8" x="416" y="372"></rect>
    <line class="solid end_marked_arrow " x1="420" x2="420" y1="384" y2="432"></line>
    <circle class="nofill " cx="348" cy="392" r="2"></circle>
    <line class="solid end_marked_arrow " x1="348" x2="392" y1="392" y2="392"></line>
    <polygon class="filled " points="352,404 344,408 352,412"></polygon>
    <line class="solid " x1="352" x2="384" y1="408" y2="408"></line>
    <rect class="solid filled " height="8" rx="0" width="8" x="384" y="404"></rect>
    <polygon class="filled " points="432,396 436,384 440,396"></polygon>
    <polygon class="filled " points="456,412 460,400 464,412"></polygon>
    <line class="broken " x1="460" x2="460" y1="416" y2="448"></line>
    <line class="broken end_marked_arrow " x1="476" x2="476" y1="400" y2="448"></line>
    <text class="" x="314" y="444">o.</text>
    <line class="broken " x1="324" x2="340" y1="440" y2="456"></line>
    <text class="" x="338" y="460">.</text>
    <text class="" x="394" y="476">.</text>
    <line class="solid " x1="412" x2="412" y1="492" y2="496"></line>
    <polygon class="filled " points="464,492 458,484 460,494"></polygon>
    <text class="" x="410" y="508">:</text>
    <line class="solid " x1="412" x2="412" y1="512" y2="516"></line>
    <text class="" x="418" y="524">.</text>
    <line class="broken end_marked_arrow " x1="424" x2="464" y1="520" y2="520"></line>
    <circle class="nofill " cx="476" cy="472" r="4"></circle>
    <line class="solid end_marked_arrow " x1="476" x2="504" y1="472" y2="528"></line>
    <polygon class="filled " points="240,516 248,520 240,524"></polygon>
    <polygon class="filled " points="272,484 264,488 272,492"></polygon>
    <polygon class="filled " points="336,484 344,488 336,492"></polygon>
    <polygon class="filled " points="360,516 352,520 360,524"></polygon>
    <g>
        <path class="nofill" d="M 64,88 A 8,8 0,0,0 58,92"></path>
        <line class="solid" x1="58" x2="40" y1="92" y2="128"></line>
        <line class="solid" x1="64" x2="88" y1="88" y2="88"></line>
        <path class="nofill" d="M 88,88 A 3,3 0,0,1 90,92"></path>
        <line class="solid" x1="90" x2="72" y1="92" y2="128"></line>
        <line class="solid" x1="52" x2="104" y1="104" y2="104"></line>
        <line class="solid" x1="40" x2="36" y1="128" y2="136"></line>
        <circle class="filled" cx="36" cy="136" r="4"></circle>
        <circle class="nofill" cx="68" cy="104" r="2"></circle>
        <line class="solid" x1="68" x2="56" y1="104" y2="128"></line>
        <line class="solid" x1="56" x2="72" y1="128" y2="160"></line>
        <line class="solid" x1="72" x2="64" y1="128" y2="144"></line>
        <line class="solid" x1="72" x2="60" y1="160" y2="184"></line>
        <path class="nofill" d="M 32,120 A 8,8 0,0,0 26,124"></path>
        <line class="solid" x1="26" x2="24" y1="124" y2="128"></line>
        <line class="solid" x1="32" x2="44" y1="120" y2="120"></line>
        <path class="nofill" d="M 24,128 A 16,16 0,0,0 24,144"></path>
        <line class="solid" x1="24" x2="26" y1="144" y2="148"></line>
        <path class="nofill" d="M 26,148 A 8,8 0,0,0 32,152"></path>
        <line class="solid" x1="32" x2="40" y1="152" y2="152"></line>
        <path class="nofill" d="M 40,152 A 8,8 0,0,1 46,156"></path>
        <line class="solid" x1="46" x2="56" y1="156" y2="176"></line>
        <line class="solid" x1="56" x2="60" y1="176" y2="184"></line>
    </g>
    <g>
        <path class="nofill" d="M 40,296 A 4,4 0,0,0 36,300"></path>
        <line class="broken" x1="36" x2="36" y1="300" y2="852"></line>
        <line class="solid" x1="40" x2="48" y1="296" y2="296"></line>
        <path class="nofill" d="M 36,852 A 4,4 0,0,0 40,856"></path>
        <line class="broken" x1="40" x2="560" y1="856" y2="856"></line>
        <line class="solid" x1="552" x2="560" y1="296" y2="296"></line>
        <path class="nofill" d="M 560,296 A 4,4 0,0,1 564,300"></path>
        <line class="broken" x1="564" x2="564" y1="300" y2="852"></line>
        <path class="nofill" d="M 564,852 A 4,4 0,0,1 560,856"></path>
    </g>
    <g>
        <line class="broken" x1="460" x2="436" y1="312" y2="336"></line>
        <line class="broken" x1="460" x2="484" y1="312" y2="336"></line>
        <line class="broken" x1="444" x2="428" y1="328" y2="344"></line>
        <line class="broken" x1="476" x2="492" y1="328" y2="344"></line>
        <line class="broken" x1="428" x2="452" y1="344" y2="368"></line>
        <line class="broken" x1="492" x2="468" y1="344" y2="368"></line>
        <line class="broken" x1="444" x2="460" y1="360" y2="376"></line>
        <line class="broken" x1="476" x2="460" y1="360" y2="376"></line>
    </g>
    <g>
        <line class="solid" x1="80" x2="136" y1="384" y2="384"></line>
        <line class="solid" x1="80" x2="64" y1="384" y2="416"></line>
        <line class="solid" x1="136" x2="152" y1="384" y2="416"></line>
        <line class="solid" x1="64" x2="80" y1="416" y2="448"></line>
        <line class="solid" x1="152" x2="136" y1="416" y2="448"></line>
        <line class="solid" x1="80" x2="136" y1="448" y2="448"></line>
    </g>
    <g>
        <path class="nofill" d="M 256,328 A 8,8 0,0,0 250,332"></path>
        <line class="solid" x1="250" x2="248" y1="332" y2="336"></line>
        <line class="solid" x1="256" x2="304" y1="328" y2="328"></line>
        <path class="nofill" d="M 304,328 A 8,8 0,0,1 310,332"></path>
        <line class="solid" x1="310" x2="312" y1="332" y2="336"></line>
        <path class="nofill" d="M 248,336 A 16,16 0,0,0 248,352"></path>
        <path class="nofill" d="M 312,336 A 16,16 0,0,1 312,352"></path>
        <line class="solid" x1="248" x2="250" y1="352" y2="356"></line>
        <path class="nofill" d="M 250,356 A 8,8 0,0,0 256,360"></path>
        <line class="solid" x1="256" x2="304" y1="360" y2="360"></line>
        <line class="solid" x1="312" x2="310" y1="352" y2="356"></line>
        <path class="nofill" d="M 310,356 A 8,8 0,0,1 304,360"></path>
    </g>
    <g>
        <line class="solid" x1="232" x2="296" y1="384" y2="384"></line>
        <line class="solid" x1="232" x2="240" y1="384" y2="400"></line>
        <line class="solid" x1="296" x2="304" y1="384" y2="400"></line>
        <path class="nofill" d="M 240,400 A 16,16 0,0,1 240,416"></path>
        <path class="nofill" d="M 304,400 A 16,16 0,0,1 304,416"></path>
        <line class="solid" x1="240" x2="232" y1="416" y2="432"></line>
        <line class="solid" x1="232" x2="296" y1="432" y2="432"></line>
        <line class="solid" x1="304" x2="296" y1="416" y2="432"></line>
    </g>
    <g>
        <line class="solid" x1="368" x2="350" y1="320" y2="356"></line>
        <line class="solid" x1="368" x2="386" y1="320" y2="356"></line>
        <path class="nofill" d="M 350,356 A 3,3 0,0,0 352,360"></path>
        <line class="solid" x1="352" x2="384" y1="360" y2="360"></line>
        <path class="nofill" d="M 386,356 A 3,3 0,0,1 384,360"></path>
    </g>
    <g>
        <line class="solid" x1="200" x2="184" y1="384" y2="416"></line>
        <line class="solid" x1="200" x2="216" y1="384" y2="416"></line>
        <line class="solid" x1="184" x2="200" y1="416" y2="448"></line>
        <line class="solid" x1="216" x2="200" y1="416" y2="448"></line>
    </g>
    <g>
        <line class="solid" x1="436" x2="436" y1="400" y2="440"></line>
        <circle class="nofill" cx="436" cy="440" r="2"></circle>
    </g>
    <g>
        <line class="broken" x1="344" x2="380" y1="456" y2="456"></line>
        <path class="nofill" d="M 380,456 A 8,8 0,0,1 388,464"></path>
        <line class="broken" x1="380" x2="412" y1="456" y2="488"></line>
    </g>
    <g>
        <line class="solid" x1="464" x2="484" y1="496" y2="536"></line>
        <circle class="filled" cx="484" cy="536" r="4"></circle>
    </g>
    <g>
        <path class="nofill" d="M 80,488 A 8,8 0,0,0 74,492"></path>
        <line class="solid" x1="74" x2="72" y1="492" y2="496"></line>
        <line class="solid" x1="80" x2="168" y1="488" y2="488"></line>
        <path class="nofill" d="M 168,488 A 8,8 0,0,1 174,492"></path>
        <line class="solid" x1="174" x2="176" y1="492" y2="496"></line>
        <path class="nofill" d="M 72,496 A 16,16 0,0,0 72,512"></path>
        <path class="nofill" d="M 176,496 A 16,16 0,0,1 176,512"></path>
        <line class="solid" x1="72" x2="74" y1="512" y2="516"></line>
        <path class="nofill" d="M 74,516 A 8,8 0,0,0 80,520"></path>
        <line class="solid" x1="80" x2="124" y1="520" y2="520"></line>
        <line class="solid" x1="124" x2="124" y1="520" y2="548"></line>
        <line class="solid" x1="176" x2="174" y1="512" y2="516"></line>
        <path class="nofill" d="M 144,520 A 8,8 0,0,0 138,524"></path>
        <line class="solid" x1="138" x2="128" y1="524" y2="544"></line>
        <line class="solid" x1="144" x2="168" y1="520" y2="520"></line>
        <path class="nofill" d="M 174,516 A 8,8 0,0,1 168,520"></path>
    </g>
    <g>
        <line class="solid" x1="104" x2="120" y1="576" y2="576"></line>
        <path class="nofill" d="M 104,576 A 16,16 0,0,0 104,592"></path>
        <line class="solid" x1="104" x2="120" y1="592" y2="592"></line>
        <path class="nofill" d="M 120,576 A 16,16 0,0,1 120,592"></path>
    </g>
    <g>
        <path class="nofill" d="M 240,488 A 8,8 0,0,0 234,492"></path>
        <line class="solid" x1="234" x2="232" y1="492" y2="496"></line>
        <path class="nofill" d="M 232,496 A 16,16 0,0,0 232,512"></path>
        <line class="solid" x1="232" x2="234" y1="512" y2="516"></line>
        <path class="nofill" d="M 234,516 A 8,8 0,0,0 240,520"></path>
    </g>
    <g>
        <path class="nofill" d="M 272,488 A 8,8 0,0,1 278,492"></path>
        <line class="solid" x1="278" x2="280" y1="492" y2="496"></line>
        <path class="nofill" d="M 280,496 A 16,16 0,0,1 280,512"></path>
        <line class="solid" x1="280" x2="278" y1="512" y2="516"></line>
        <path class="nofill" d="M 278,516 A 8,8 0,0,1 272,520"></path>
    </g>
    <g>
        <path class="nofill" d="M 336,488 A 8,8 0,0,0 330,492"></path>
        <line class="solid" x1="330" x2="328" y1="492" y2="496"></line>
        <path class="nofill" d="M 328,496 A 16,16 0,0,0 328,512"></path>
        <line class="solid" x1="328" x2="330" y1="512" y2="516"></line>
        <path class="nofill" d="M 330,516 A 8,8 0,0,0 336,520"></path>
    </g>
    <g>
        <path class="nofill" d="M 360,488 A 8,8 0,0,1 366,492"></path>
        <line class="solid" x1="366" x2="368" y1="492" y2="496"></line>
        <path class="nofill" d="M 368,496 A 16,16 0,0,1 368,512"></path>
        <line class="solid" x1="368" x2="366" y1="512" y2="516"></line>
        <path class="nofill" d="M 366,516 A 8,8 0,0,1 360,520"></path>
    </g>
    <g>
        <path class="nofill" d="M 280,568 A 8,8 0,0,0 274,572"></path>
        <line class="solid" x1="274" x2="272" y1="572" y2="576"></line>
        <line class="solid" x1="280" x2="296" y1="568" y2="568"></line>
        <path class="nofill" d="M 296,568 A 8,8 0,0,1 302,572"></path>
        <line class="solid" x1="302" x2="304" y1="572" y2="576"></line>
        <path class="nofill" d="M 272,576 A 16,16 0,0,0 272,592"></path>
        <path class="nofill" d="M 304,576 A 16,16 0,0,1 304,592"></path>
        <line class="solid" x1="272" x2="274" y1="592" y2="596"></line>
        <path class="nofill" d="M 274,596 A 8,8 0,0,0 280,600"></path>
        <line class="solid" x1="280" x2="296" y1="600" y2="600"></line>
        <line class="solid" x1="304" x2="302" y1="592" y2="596"></line>
        <path class="nofill" d="M 302,596 A 8,8 0,0,1 296,600"></path>
    </g>
    <g>
        <path class="nofill" d="M 216,760 A 3,3 0,0,0 214,764"></path>
        <line class="solid" x1="214" x2="232" y1="764" y2="800"></line>
        <line class="solid" x1="216" x2="256" y1="760" y2="760"></line>
        <path class="nofill" d="M 256,760 A 3,3 0,0,1 258,764"></path>
        <line class="solid" x1="258" x2="240" y1="764" y2="800"></line>
        <line class="solid" x1="232" x2="236" y1="800" y2="808"></line>
        <line class="solid" x1="240" x2="236" y1="800" y2="808"></line>
    </g>
    <g>
        <path class="nofill" d="M 280,760 A 3,3 0,0,0 278,764"></path>
        <line class="solid" x1="278" x2="296" y1="764" y2="800"></line>
        <line class="solid" x1="280" x2="312" y1="760" y2="760"></line>
        <path class="nofill" d="M 312,760 A 8,8 0,0,1 318,764"></path>
        <line class="solid" x1="318" x2="336" y1="764" y2="800"></line>
        <line class="solid" x1="296" x2="298" y1="800" y2="804"></line>
        <path class="nofill" d="M 298,804 A 8,8 0,0,0 304,808"></path>
        <line class="solid" x1="304" x2="336" y1="808" y2="808"></line>
        <line class="solid" x1="336" x2="338" y1="800" y2="804"></line>
        <path class="nofill" d="M 338,804 A 3,3 0,0,1 336,808"></path>
    </g>
</svg>